:SAMPLES-PER-SECOND 30
:FULLY-SPECIFIED
:DEGREES
331
root  -70.316 39.3177 -2.26661 -61.8265 86.6461 -64.2228
RightUpLeg  -22.6179 -3.20826 2.11005
RightLeg  12.8112 3.27587 1.22511
RightFoot  5.43749 0.107913 -0.480229
RightToes  -1.16417e-010 0 -3.6325e-017
Spine  6.98583 -0.72225 7.06597
Spine1  3.65254 -0.882222 1.71689
HEad  -23.232 -1.87095 -1.85999
LeftShoulder1  -0.656192 5.13028 -34.1698
LeftArm  23.9379 1.80409 -48.3922
LeftForeArm  16.9125 -26.302 -4.74565
LeftHand  -0.0481969 6.93746 -0.645719
RightShoulder  -1.08745 -6.47318 30.0929
RightArm  14.2149 -6.76625 43.3871
RightForeArm  25.485 8.35202 6.72937
RightHand  0.0880645 -2.37043 3.63952
LeftUpLeg  10.5537 7.73423 4.83092
LeftLeg  14.3504 10.7949 3.52038
LeftFoot  -20.0207 -0.481984 -7.94357
LeftToes  3.13772e-010 -3.14513e-011 3.96022e-013
332
root  -69.2918 39.1975 -2.00965 -61.9823 85.4886 -63.5598
RightUpLeg  -21.9908 -2.48212 3.60495
RightLeg  16.5356 3.3002 1.13824
RightFoot  3.45824 0.19376 -1.32711
RightToes  -1.16417e-010 0 -3.6325e-017
Spine  7.4544 -0.308042 10.0461
Spine1  4.02688 0.178246 0.302634
HEad  -23.56 -2.94727 -1.55919
LeftShoulder1  -0.546104 4.86854 -33.8552
LeftArm  21.7978 4.35424 -47.4604
LeftForeArm  17.5079 -26.9326 -4.85426
LeftHand  -0.0328289 6.81126 0.205602
RightShoulder  -1.11435 -6.50899 30.5417
RightArm  13.9057 -1.36933 43.7152
RightForeArm  27.5694 4.65272 7.07488
RightHand  0.177474 -1.24449 5.14662
LeftUpLeg  10.3629 6.25186 6.42547
LeftLeg  20.18 10.331 4.48638
LeftFoot  -19.2448 -0.73309 -12.3501
LeftToes  3.13772e-010 -3.14513e-011 3.96022e-013
333
root  -68.367 39.0924 -1.74537 -74.0744 85.347 -75.2469
RightUpLeg  -21.6919 -2.13334 4.30363
RightLeg  20.0432 2.28753 0.79309
RightFoot  0.769121 0.282053 -2.60536
RightToes  -1.16417e-010 0 -3.6325e-017
Spine  7.54883 -0.448123 11.91
Spine1  4.35831 0.486815 -0.160923
HEad  -23.1425 -3.15265 -1.05588
LeftShoulder1  -0.521694 4.8152 -33.6225
LeftArm  20.9451 6.75984 -45.8754
LeftForeArm  17.2196 -27.7361 -5.05163
LeftHand  -0.0209218 7.74004 1.01338
RightShoulder  -1.15541 -6.59932 30.7455
RightArm  14.2328 3.90783 44.498
RightForeArm  27.4332 2.27861 7.48735
RightHand  0.241447 0.878955 4.65191
LeftUpLeg  7.52804 3.72682 7.2402
LeftLeg  28.7935 9.04154 5.68122
LeftFoot  -16.2815 -0.598134 -16.4251
LeftToes  3.13772e-010 -3.14513e-011 3.96022e-013
334
root  -67.4447 39.1237 -1.52669 -88.2911 85.4732 -88.8721
RightUpLeg  -20.2134 -3.55059 4.57883
RightLeg  21.7169 2.3696 1.01212
RightFoot  -1.43003 0.280947 -3.33034
RightToes  -1.16417e-010 0 -3.6325e-017
Spine  7.68066 -0.490466 12.8966
Spine1  4.28178 0.659455 0.183922
HEad  -21.8481 -4.39557 -1.29317
LeftShoulder1  -0.553319 4.88048 -34.0293
LeftArm  20.5682 8.91934 -43.9344
LeftForeArm  17.028 -28.224 -5.17371
LeftHand  -0.0161644 7.83062 1.17127
RightShoulder  -0.91934 -6.06991 29.2811
RightArm  13.2159 6.90351 45.6909
RightForeArm  26.0637 2.10287 7.23313
RightHand  0.171081 3.06133 1.98134
LeftUpLeg  3.40536 0.732746 7.32679
LeftLeg  38.5512 8.13967 7.31175
LeftFoot  -8.14224 0.312545 -13.6846
LeftToes  3.13772e-010 -3.14513e-011 3.96022e-013
335
root  -66.5038 39.182 -1.28676 -94.4232 85.2422 -94.3938
RightUpLeg  -18.132 -4.06662 4.97716
RightLeg  22.347 2.35532 1.0885
RightFoot  -3.56032 0.196862 -3.24286
RightToes  -1.16417e-010 0 -3.6325e-017
Spine  7.81034 -0.196831 14.5039
Spine1  3.99979 1.46897 -0.988155
HEad  -20.1827 -6.03066 -1.30245
LeftShoulder1  -0.534892 4.85508 -33.4358
LeftArm  20.0637 10.7533 -43.069
LeftForeArm  18.0264 -27.8049 -5.02284
LeftHand  -0.013402 8.10568 1.23471
RightShoulder  -0.98044 -6.25868 29.0329
RightArm  13.0357 10.1085 45.9631
RightForeArm  24.5497 3.24378 7.15469
RightHand  0.0806956 0.547646 1.55222
LeftUpLeg  -1.32634 -0.924514 7.69048
LeftLeg  47.85 6.7742 8.27492
LeftFoot  2.37173 0.63747 -4.97215
LeftToes  3.13772e-010 -3.14513e-011 3.96022e-013
336
root  -65.6081 39.1763 -1.11051 -97.3124 85.1655 -96.6717
RightUpLeg  -16.3672 -4.34011 5.20021
RightLeg  23.2941 2.28557 1.08423
RightFoot  -5.72235 0.121273 -3.26572
RightToes  -1.16417e-010 0 -3.6325e-017
Spine  7.91347 0.116697 15.9805
Spine1  4.05549 2.31239 -1.87601
HEad  -18.6483 -7.67725 -1.36393
LeftShoulder1  -0.529872 4.85395 -33.0763
LeftArm  18.902 12.6303 -42.0944
LeftForeArm  19.4202 -27.5813 -4.89597
LeftHand  -0.0340495 7.71679 0.403683
RightShoulder  -0.983632 -6.28824 28.7692
RightArm  13.2454 13.1333 45.7949
RightForeArm  20.733 5.45919 7.26344
RightHand  0.0511595 1.79697 0.699968
LeftUpLeg  -5.32354 -2.64949 7.69565
LeftLeg  54.2116 2.90686 4.78606
LeftFoot  4.61639 0.318442 -2.433
LeftToes  3.13772e-010 -3.14513e-011 3.96022e-013
337
root  -64.6839 39.3071 -0.943775 -98.8423 85.687 -97.529
RightUpLeg  -13.8752 -4.83807 4.74725
RightLeg  23.101 2.76604 1.2581
RightFoot  -7.15737 0.081006 -3.54091
RightToes  -1.16417e-010 0 -3.6325e-017
Spine  7.96861 0.345612 16.7529
Spine1  4.1093 3.02468 -3.29078
HEad  -16.6435 -8.77154 -0.72686
LeftShoulder1  -0.489907 4.77727 -32.3274
LeftArm  17.582 14.6596 -41.3676
LeftForeArm  18.5709 -26.9782 -4.80644
LeftHand  -0.016074 7.54947 1.18972
RightShoulder  -1.0092 -6.33696 29.0658
RightArm  14.0737 16.3981 45.268
RightForeArm  15.8939 8.05951 7.50224
RightHand  -0.0888558 2.49248 -1.54122
LeftUpLeg  -8.62807 -3.54172 7.19893
LeftLeg  57.8186 -0.533996 -0.357856
LeftFoot  2.00125 0.447723 -3.9181
LeftToes  3.13772e-010 -3.14513e-011 3.96022e-013
338
root  -63.7534 39.4008 -0.793756 -97.9982 86.3304 -96.3617
RightUpLeg  -11.776 -5.41342 4.20002
RightLeg  22.9095 3.4278 1.44772
RightFoot  -8.70395 0.0265752 -3.69308
RightToes  -1.16417e-010 0 -3.6325e-017
Spine  7.59154 0.571589 16.7277
Spine1  4.30989 3.35609 -3.76166
HEad  -15.5105 -9.06528 -1.37091
LeftShoulder1  -0.539344 4.90164 -32.4146
LeftArm  17.2989 16.2451 -40.2206
LeftForeArm  17.1703 -26.0202 -4.66396
LeftHand  0.000408043 8.38081 1.72527
RightShoulder  -0.933305 -6.18974 28.1869
RightArm  15.1909 19.6259 46.2272
RightForeArm  13.7572 10.3063 7.30909
RightHand  -0.126525 3.92056 -1.84229
LeftUpLeg  -12.0632 -3.98212 6.44707
LeftLeg  59.2464 -2.09449 -3.24455
LeftFoot  1.04755 0.493591 -4.61036
LeftToes  3.13772e-010 -3.14513e-011 3.96022e-013
339
root  -62.7957 39.5087 -0.670953 -93.0243 87.0434 -91.2018
RightUpLeg  -9.59086 -6.18781 3.40831
RightLeg  22.3382 4.52372 1.81392
RightFoot  -10.0626 -0.0257977 -3.81083
RightToes  -1.16417e-010 0 -3.6325e-017
Spine  7.04249 0.875526 17.1434
Spine1  4.50597 3.89423 -5.28793
HEad  -15.1947 -7.48767 -2.03899
LeftShoulder1  -0.441446 4.66918 -31.754
LeftArm  16.3586 17.6862 -40.002
LeftForeArm  16.6014 -24.2574 -4.34925
LeftHand  -0.0294463 8.60064 0.588772
RightShoulder  -0.915247 -6.16509 27.8124
RightArm  16.5197 22.0309 46.981
RightForeArm  11.6593 13.2015 6.5722
RightHand  -0.178285 4.0459 -2.46877
LeftUpLeg  -15.0621 -4.1961 5.41076
LeftLeg  58.2963 -1.85231 -2.72807
LeftFoot  -0.107379 0.47131 -4.76691
LeftToes  3.13772e-010 -3.14513e-011 3.96022e-013
340
root  -61.8754 39.6263 -0.536275 -68.6963 87.6899 -66.5129
RightUpLeg  -7.09518 -7.08326 2.43245
RightLeg  21.2958 6.18851 2.46139
RightFoot  -11.04 -0.0632931 -4.22591
RightToes  -1.16417e-010 0 -3.6325e-017
Spine  7.3979 1.30746 16.8911
Spine1  4.10181 4.44108 -6.38873
HEad  -14.708 -6.59641 -2.46131
LeftShoulder1  -0.463533 4.72028 -31.9659
LeftArm  16.0675 18.4954 -39.2038
LeftForeArm  16.719 -22.2339 -4.29476
LeftHand  -0.0573027 8.49863 -0.379877
RightShoulder  -0.820342 -5.97546 26.5699
RightArm  17.8664 23.8056 48.3114
RightForeArm  9.4925 16.2168 5.62065
RightHand  -0.177103 4.60517 -2.34213
LeftUpLeg  -17.2002 -3.21615 4.42163
LeftLeg  54.8862 -0.951394 -0.999609
LeftFoot  -1.38525 0.349724 -3.93657
LeftToes  3.13772e-010 -3.14513e-011 3.96022e-013
341
root  -60.9603 39.7166 -0.379388 -43.1762 87.778 -40.8391
RightUpLeg  -4.88683 -7.31039 1.78214
RightLeg  20.335 7.11698 2.43451
RightFoot  -11.9568 -0.10458 -4.43079
RightToes  -1.16417e-010 0 -3.6325e-017
Spine  7.41999 1.49463 16.2781
Spine1  4.05818 4.59968 -7.20467
HEad  -14.9908 -6.41866 -2.98284
LeftShoulder1  -0.523947 4.87447 -32.0813
LeftArm  14.6406 19.2512 -38.4899
LeftForeArm  18.6849 -20.5166 -4.94388
LeftHand  -0.0758893 8.29075 -1.1555
RightShoulder  -0.715815 -5.71947 25.6521
RightArm  18.8805 25.6553 49.8399
RightForeArm  7.46617 18.6096 5.01541
RightHand  -0.207696 4.75917 -2.66805
LeftUpLeg  -18.9389 -2.14165 3.60101
LeftLeg  49.3741 0.154745 0.621484
LeftFoot  -2.94381 0.330875 -4.26267
LeftToes  3.13772e-010 -3.14513e-011 3.96022e-013
342
root  -60.0621 39.7898 -0.265161 -20.1902 87.4766 -17.9599
RightUpLeg  -2.91302 -7.66422 0.981817
RightLeg  19.117 8.27009 2.57343
RightFoot  -12.8163 -0.145765 -4.6005
RightToes  -1.16417e-010 0 -3.6325e-017
Spine  7.06398 1.84802 15.5896
Spine1  4.58106 4.86788 -7.9303
HEad  -16.2476 -5.83442 -3.27484
LeftShoulder1  -0.50873 4.81991 -32.5013
LeftArm  11.5743 19.1711 -37.9902
LeftForeArm  21.8367 -18.0134 -6.19585
LeftHand  -0.0696462 8.10098 -1.06535
RightShoulder  -0.732221 -5.7985 25.2305
RightArm  20.0274 27.4116 50.8135
RightForeArm  6.4417 21.2231 4.58639
RightHand  -0.182666 4.75517 -2.38266
LeftUpLeg  -20.1688 -0.713536 2.69721
LeftLeg  41.8839 0.806918 1.15201
LeftFoot  -3.3409 0.321719 -4.314
LeftToes  3.13772e-010 -3.14513e-011 3.96022e-013
